<?xml version="1.0" standalone="no"?>
<!DOCTYPE svg PUBLIC "-//W3C//DTD SVG 20010904//EN"
 "http://www.w3.org/TR/2001/REC-SVG-20010904/DTD/svg10.dtd">
<svg version="1.0" xmlns="http://www.w3.org/2000/svg"
 width="100.000000pt" height="100.000000pt" viewBox="0 0 100.000000 100.000000"
 preserveAspectRatio="xMidYMid meet">

<g transform="translate(0.000000,100.000000) scale(0.100000,-0.100000)"
fill="#000000" stroke="none">
<path d="M461 805 c-120 -44 -161 -113 -161 -264 0 -62 6 -97 19 -126 31 -67
52 -79 148 -85 l85 -5 -70 -48 c-120 -82 -156 -166 -90 -208 48 -29 147 -23
184 11 40 38 54 74 54 138 0 58 1 61 49 108 60 60 91 110 91 147 0 24 -4 27
-34 27 -27 0 -36 -5 -45 -27 -7 -16 -23 -41 -36 -58 l-25 -30 0 51 c0 28 -5
65 -11 83 -10 30 -13 31 -65 31 -53 0 -54 0 -54 -30 0 -26 3 -30 29 -30 25 0
30 -5 35 -36 10 -49 -6 -64 -63 -64 -62 0 -89 16 -117 70 -79 148 56 316 236
295 l60 -7 0 35 c0 32 -3 35 -37 41 -67 11 -117 6 -182 -19z m109 -584 c0 -13
-24 -56 -40 -73 -28 -27 -54 -37 -73 -27 -22 13 -17 21 45 69 49 40 68 48 68
31z"/>
</g>
</svg>
