<svg version="1.1" xml:space="preserve" style="clip-rule:evenodd;fill-rule:evenodd;stroke-linejoin:round;stroke-miterlimit:2" id="svg22" sodipodi:docname="GD.svg" inkscape:version="1.2.2 (b0a8486541, 2022-12-01)" xmlns:inkscape="http://www.inkscape.org/namespaces/inkscape" xmlns:sodipodi="http://sodipodi.sourceforge.net/DTD/sodipodi-0.dtd" xmlns="http://www.w3.org/2000/svg" xmlns:svg="http://www.w3.org/2000/svg" viewBox="-0.02 0 1521.42 1503.9"><defs id="defs26"/><sodipodi:namedview id="namedview24" pagecolor="#ffffff" bordercolor="#000000" borderopacity="0.25" inkscape:showpageshadow="2" inkscape:pageopacity="0.0" inkscape:pagecheckerboard="0" inkscape:deskcolor="#d1d1d1" showgrid="false" inkscape:zoom="0.24572406" inkscape:cx="738.63341" inkscape:cy="781.36427" inkscape:window-width="1920" inkscape:window-height="1008" inkscape:window-x="1920" inkscape:window-y="0" inkscape:window-maximized="1" inkscape:current-layer="svg22"/>
    <g transform="matrix(1.15636,0,0,1.15636,-591.90224,-1276.3324)" id="g4">
        <path d="m 1827.53,1772.11 c -9.63,350.46 -297.16,632.01 -649.93,632.01 -358.851,0 -650.189,-291.34 -650.189,-650.18 0,-358.85 291.338,-650.19 650.189,-650.19 178.03,0 339.44,71.71 456.91,187.8 l -163.76,168.32 c -73.4,-78.8 -178.05,-128.12 -294.12,-128.12 -221.813,0 -401.897,180.09 -401.897,401.9 0,221.81 180.084,401.9 401.897,401.9 208.95,0 380.86,-159.8 400.11,-363.74 z" style="fill:#0000ff" id="path2"/>
    </g>
    <g transform="matrix(1.02328,0,0,1.10211,-540.99574,-1255.0714)" id="g8">
        <rect x="1206.64" y="1626.58" width="808.82202" height="214.494" style="fill:#0000ff" id="rect6"/>
    </g>
    <g transform="matrix(1.18868,0,0,0.924266,-653.36394,-894.73305)" id="g12">
        <rect x="549.65503" y="968.26398" width="236.83701" height="1626.58" style="fill:#0000ff" id="rect10"/>
    </g>
    <g transform="matrix(1.06304,0,0,0.992011,-545.81774,-964.89162)" id="g16">
        <rect x="647.96503" y="972.73297" width="589.85901" height="187.68201" style="fill:#0000ff" id="rect14"/>
    </g>
    <g transform="matrix(0.902626,0,0,0.960477,-440.56884,-885.38315)" id="g20">
        <rect x="661.37097" y="2246.29" width="683.70001" height="241.306" style="fill:#0000ff" id="rect18"/>
    </g>
</svg>